<svg xmlns="http://www.w3.org/2000/svg" viewBox="0 0 260 300"><defs>
<linearGradient id="jb" x1="0.2" y1="0" x2="0.8" y2="1">
  <stop offset="0" stop-color="#ffa056"/><stop offset="1" stop-color="#e5732a"/>
</linearGradient>
<linearGradient id="jl" x1="0" y1="1" x2="0.4" y2="0">
  <stop offset="0" stop-color="#2f7d52"/><stop offset="1" stop-color="#5dbd85"/>
</linearGradient>
<radialGradient id="jch" cx="0.5" cy="0.4" r="0.6">
  <stop offset="0" stop-color="#ffca9e"/><stop offset="1" stop-color="#ffc98f" stop-opacity="0"/>
</radialGradient>
</defs><ellipse cx="130" cy="280" rx="64" ry="9" fill="#3a2b18" opacity="0.12"/><g transform="translate(110 58) rotate(-38) scale(0.9)"><path d="M0 8 C -13 -16 -11 -50 0 -72 C 11 -50 13 -16 0 8 Z" fill="url(#jl)"/><path d="M0 2 C -2 -20 -1 -44 0 -60" stroke="#bfe8cf" stroke-width="3" fill="none" stroke-linecap="round" opacity="0.65"/></g><g transform="translate(150 58) rotate(38) scale(0.9)"><path d="M0 8 C -13 -16 -11 -50 0 -72 C 11 -50 13 -16 0 8 Z" fill="url(#jl)"/><path d="M0 2 C -2 -20 -1 -44 0 -60" stroke="#bfe8cf" stroke-width="3" fill="none" stroke-linecap="round" opacity="0.65"/></g><g transform="translate(130 52) rotate(0) scale(1.1)"><path d="M0 8 C -13 -16 -11 -50 0 -72 C 11 -50 13 -16 0 8 Z" fill="url(#jl)"/><path d="M0 2 C -2 -20 -1 -44 0 -60" stroke="#bfe8cf" stroke-width="3" fill="none" stroke-linecap="round" opacity="0.65"/></g><path d="M130 54 C 184 54 214 94 214 142 C 214 204 174 250 138 266 C 133 268 127 268 122 266 C 86 250 46 204 46 142 C 46 94 76 54 130 54 Z" fill="url(#jb)"/><ellipse cx="106" cy="268" rx="17" ry="10" fill="#d8641f"/><ellipse cx="154" cy="268" rx="17" ry="10" fill="#d8641f"/><ellipse cx="46" cy="170" rx="11" ry="19" fill="#ef7f35" transform="rotate(-26 46 170)"/><ellipse cx="214" cy="170" rx="11" ry="19" fill="#ef7f35" transform="rotate(26 214 170)"/><ellipse cx="130" cy="196" rx="46" ry="52" fill="url(#jch)"/><g stroke="#c95f1d" stroke-width="6" stroke-linecap="round" opacity="0.35"><path d="M70 190 q10 4 22 4"/><path d="M168 214 q10 2 20 -2"/></g><ellipse cx="88" cy="92" rx="12" ry="20" fill="#fff" opacity="0.28" transform="rotate(-20 88 92)"/><ellipse cx="98" cy="128" rx="16" ry="20" fill="#3d2413"/><ellipse cx="98" cy="128" rx="12.5" ry="16.5" fill="none" stroke="#8a5a2b" stroke-width="2.5" opacity="0.8"/><circle cx="93" cy="120" r="5.5" fill="#fff"/><circle cx="103" cy="136" r="2.2" fill="#fff" opacity="0.85"/><ellipse cx="162" cy="128" rx="16" ry="20" fill="#3d2413"/><ellipse cx="162" cy="128" rx="12.5" ry="16.5" fill="none" stroke="#8a5a2b" stroke-width="2.5" opacity="0.8"/><circle cx="157" cy="120" r="5.5" fill="#fff"/><circle cx="167" cy="136" r="2.2" fill="#fff" opacity="0.85"/><ellipse cx="76" cy="150" rx="9" ry="5.5" fill="#ff8b6b" opacity="0.55"/><ellipse cx="184" cy="150" rx="9" ry="5.5" fill="#ff8b6b" opacity="0.55"/><path d="M114 158 q16 14 32 0" stroke="#5a3413" stroke-width="5" fill="none" stroke-linecap="round"/></svg>